<svg width="91" height="39" viewBox="0 0 91 39" fill="none" xmlns="http://www.w3.org/2000/svg">
<path d="M18.656 19.9999L18.6 9.6119L13.56 18.0679H11.096L6.08396 9.8919V19.9999H0.959961V0.399902H5.52396L12.412 11.7119L19.132 0.399902H23.696L23.752 19.9999H18.656Z" fill="black"/>
<path d="M40.8068 16.1919H32.5188L30.9788 19.9999H25.3228L33.9748 0.399902H39.4348L48.1148 19.9999H42.3468L40.8068 16.1919ZM39.1828 12.1039L36.6628 5.8319L34.1428 12.1039H39.1828Z" fill="black"/>
<path d="M66.2625 15.6039V19.9999H48.7065V16.5279L58.5905 4.7959H48.9585V0.399902H65.8425V3.8719L55.9585 15.6039H66.2625Z" fill="black"/>
<path d="M81.8224 16.1919H73.5344L71.9944 19.9999H66.3384L74.9904 0.399902H80.4504L89.1304 19.9999H83.3624L81.8224 16.1919ZM80.1984 12.1039L77.6784 5.8319L75.1584 12.1039H80.1984Z" fill="black"/>
<path d="M5.84996 27.8099C6.59996 27.8099 7.27996 27.9849 7.88996 28.3349C8.50996 28.6749 8.99496 29.1599 9.34496 29.7899C9.69496 30.4099 9.86996 31.1349 9.86996 31.9649C9.86996 32.7949 9.69496 33.5249 9.34496 34.1549C8.99496 34.7749 8.50996 35.2599 7.88996 35.6099C7.27996 35.9499 6.59996 36.1199 5.84996 36.1199C4.73996 36.1199 3.89496 35.7699 3.31496 35.0699V35.9999H1.07996V24.8699H3.41996V28.7849C4.00996 28.1349 4.81996 27.8099 5.84996 27.8099ZM5.44496 34.1999C6.04496 34.1999 6.53496 33.9999 6.91496 33.5999C7.30496 33.1899 7.49996 32.6449 7.49996 31.9649C7.49996 31.2849 7.30496 30.7449 6.91496 30.3449C6.53496 29.9349 6.04496 29.7299 5.44496 29.7299C4.84496 29.7299 4.34996 29.9349 3.95996 30.3449C3.57996 30.7449 3.38996 31.2849 3.38996 31.9649C3.38996 32.6449 3.57996 33.1899 3.95996 33.5999C4.34996 33.9999 4.84496 34.1999 5.44496 34.1999Z" fill="black"/>
<path d="M14.5596 27.8099C15.8096 27.8099 16.7696 28.1099 17.4396 28.7099C18.1096 29.2999 18.4446 30.1949 18.4446 31.3949V35.9999H16.2546V34.9949C15.8146 35.7449 14.9946 36.1199 13.7946 36.1199C13.1746 36.1199 12.6346 36.0149 12.1746 35.8049C11.7246 35.5949 11.3796 35.3049 11.1396 34.9349C10.8996 34.5649 10.7796 34.1449 10.7796 33.6749C10.7796 32.9249 11.0596 32.3349 11.6196 31.9049C12.1896 31.4749 13.0646 31.2599 14.2446 31.2599H16.1046C16.1046 30.7499 15.9496 30.3599 15.6396 30.0899C15.3296 29.8099 14.8646 29.6699 14.2446 29.6699C13.8146 29.6699 13.3896 29.7399 12.9696 29.8799C12.5596 30.0099 12.2096 30.1899 11.9196 30.4199L11.0796 28.7849C11.5196 28.4749 12.0446 28.2349 12.6546 28.0649C13.2746 27.8949 13.9096 27.8099 14.5596 27.8099ZM14.3796 34.5449C14.7796 34.5449 15.1346 34.4549 15.4446 34.2749C15.7546 34.0849 15.9746 33.8099 16.1046 33.4499V32.6249H14.4996C13.5396 32.6249 13.0596 32.9399 13.0596 33.5699C13.0596 33.8699 13.1746 34.1099 13.4046 34.2899C13.6446 34.4599 13.9696 34.5449 14.3796 34.5449Z" fill="black"/>
<path d="M22.7974 28.9949C23.0774 28.6049 23.4524 28.3099 23.9224 28.1099C24.4024 27.9099 24.9524 27.8099 25.5724 27.8099V29.9699C25.3124 29.9499 25.1374 29.9399 25.0474 29.9399C24.3774 29.9399 23.8524 30.1299 23.4724 30.5099C23.0924 30.8799 22.9024 31.4399 22.9024 32.1899V35.9999H20.5624V27.9299H22.7974V28.9949Z" fill="black"/>
<path d="M31.7337 27.8099C32.4837 27.8099 33.1638 27.9849 33.7738 28.3349C34.3938 28.6749 34.8788 29.1599 35.2288 29.7899C35.5788 30.4099 35.7537 31.1349 35.7537 31.9649C35.7537 32.7949 35.5788 33.5249 35.2288 34.1549C34.8788 34.7749 34.3938 35.2599 33.7738 35.6099C33.1638 35.9499 32.4837 36.1199 31.7337 36.1199C30.6237 36.1199 29.7787 35.7699 29.1987 35.0699V35.9999H26.9638V24.8699H29.3038V28.7849C29.8938 28.1349 30.7037 27.8099 31.7337 27.8099ZM31.3288 34.1999C31.9288 34.1999 32.4187 33.9999 32.7987 33.5999C33.1887 33.1899 33.3838 32.6449 33.3838 31.9649C33.3838 31.2849 33.1887 30.7449 32.7987 30.3449C32.4187 29.9349 31.9288 29.7299 31.3288 29.7299C30.7288 29.7299 30.2338 29.9349 29.8438 30.3449C29.4638 30.7449 29.2738 31.2849 29.2738 31.9649C29.2738 32.6449 29.4638 33.1899 29.8438 33.5999C30.2338 33.9999 30.7288 34.1999 31.3288 34.1999Z" fill="black"/>
<path d="M45.2252 31.9949C45.2252 32.0249 45.2102 32.2349 45.1802 32.6249H39.0752C39.1852 33.1249 39.4452 33.5199 39.8552 33.8099C40.2652 34.0999 40.7752 34.2449 41.3852 34.2449C41.8052 34.2449 42.1752 34.1849 42.4952 34.0649C42.8252 33.9349 43.1302 33.7349 43.4102 33.4649L44.6552 34.8149C43.8952 35.6849 42.7852 36.1199 41.3252 36.1199C40.4152 36.1199 39.6102 35.9449 38.9102 35.5949C38.2102 35.2349 37.6702 34.7399 37.2902 34.1099C36.9102 33.4799 36.7202 32.7649 36.7202 31.9649C36.7202 31.1749 36.9052 30.4649 37.2752 29.8349C37.6552 29.1949 38.1702 28.6999 38.8202 28.3499C39.4802 27.9899 40.2152 27.8099 41.0252 27.8099C41.8152 27.8099 42.5302 27.9799 43.1702 28.3199C43.8102 28.6599 44.3102 29.1499 44.6702 29.7899C45.0402 30.4199 45.2252 31.1549 45.2252 31.9949ZM41.0402 29.5799C40.5102 29.5799 40.0652 29.7299 39.7052 30.0299C39.3452 30.3299 39.1252 30.7399 39.0452 31.2599H43.0202C42.9402 30.7499 42.7202 30.3449 42.3602 30.0449C42.0002 29.7349 41.5602 29.5799 41.0402 29.5799Z" fill="black"/>
<path d="M49.0181 28.9949C49.2981 28.6049 49.6731 28.3099 50.1431 28.1099C50.6231 27.9099 51.1731 27.8099 51.7931 27.8099V29.9699C51.5331 29.9499 51.3581 29.9399 51.2681 29.9399C50.5981 29.9399 50.0731 30.1299 49.6931 30.5099C49.3131 30.8799 49.1231 31.4399 49.1231 32.1899V35.9999H46.7831V27.9299H49.0181V28.9949Z" fill="black"/>
<path d="M55.9287 36.1199C55.2587 36.1199 54.6037 36.0399 53.9637 35.8799C53.3237 35.7099 52.8138 35.4999 52.4338 35.2499L53.2137 33.5699C53.5737 33.7999 54.0087 33.9899 54.5187 34.1399C55.0287 34.2799 55.5287 34.3499 56.0187 34.3499C57.0087 34.3499 57.5037 34.1049 57.5037 33.6149C57.5037 33.3849 57.3688 33.2199 57.0988 33.1199C56.8288 33.0199 56.4137 32.9349 55.8537 32.8649C55.1937 32.7649 54.6487 32.6499 54.2188 32.5199C53.7887 32.3899 53.4137 32.1599 53.0938 31.8299C52.7837 31.4999 52.6287 31.0299 52.6287 30.4199C52.6287 29.9099 52.7738 29.4599 53.0638 29.0699C53.3638 28.6699 53.7937 28.3599 54.3537 28.1399C54.9237 27.9199 55.5938 27.8099 56.3638 27.8099C56.9338 27.8099 57.4988 27.8749 58.0588 28.0049C58.6288 28.1249 59.0987 28.2949 59.4688 28.5149L58.6888 30.1799C57.9788 29.7799 57.2038 29.5799 56.3638 29.5799C55.8638 29.5799 55.4888 29.6499 55.2388 29.7899C54.9888 29.9299 54.8638 30.1099 54.8638 30.3299C54.8638 30.5799 54.9987 30.7549 55.2687 30.8549C55.5387 30.9549 55.9688 31.0499 56.5588 31.1399C57.2188 31.2499 57.7587 31.3699 58.1787 31.4999C58.5987 31.6199 58.9638 31.8449 59.2738 32.1749C59.5838 32.5049 59.7388 32.9649 59.7388 33.5549C59.7388 34.0549 59.5887 34.4999 59.2887 34.8899C58.9887 35.2799 58.5487 35.5849 57.9688 35.8049C57.3987 36.0149 56.7187 36.1199 55.9287 36.1199Z" fill="black"/>
<path d="M66.0875 27.8099C67.0875 27.8099 67.8925 28.1099 68.5025 28.7099C69.1225 29.3099 69.4325 30.1999 69.4325 31.3799V35.9999H67.0925V31.7399C67.0925 31.0999 66.9525 30.6249 66.6725 30.3149C66.3925 29.9949 65.9875 29.8349 65.4575 29.8349C64.8675 29.8349 64.3975 30.0199 64.0475 30.3899C63.6975 30.7499 63.5225 31.2899 63.5225 32.0099V35.9999H61.1825V24.8699H63.5225V28.7699C63.8325 28.4599 64.2075 28.2249 64.6475 28.0649C65.0875 27.8949 65.5675 27.8099 66.0875 27.8099Z" fill="black"/>
<path d="M75.4815 36.1199C74.6315 36.1199 73.8665 35.9449 73.1865 35.5949C72.5165 35.2349 71.9915 34.7399 71.6115 34.1099C71.2315 33.4799 71.0415 32.7649 71.0415 31.9649C71.0415 31.1649 71.2315 30.4499 71.6115 29.8199C71.9915 29.1899 72.5165 28.6999 73.1865 28.3499C73.8665 27.9899 74.6315 27.8099 75.4815 27.8099C76.3315 27.8099 77.0915 27.9899 77.7615 28.3499C78.4315 28.6999 78.9565 29.1899 79.3365 29.8199C79.7165 30.4499 79.9065 31.1649 79.9065 31.9649C79.9065 32.7649 79.7165 33.4799 79.3365 34.1099C78.9565 34.7399 78.4315 35.2349 77.7615 35.5949C77.0915 35.9449 76.3315 36.1199 75.4815 36.1199ZM75.4815 34.1999C76.0815 34.1999 76.5715 33.9999 76.9515 33.5999C77.3415 33.1899 77.5365 32.6449 77.5365 31.9649C77.5365 31.2849 77.3415 30.7449 76.9515 30.3449C76.5715 29.9349 76.0815 29.7299 75.4815 29.7299C74.8815 29.7299 74.3865 29.9349 73.9965 30.3449C73.6065 30.7449 73.4115 31.2849 73.4115 31.9649C73.4115 32.6449 73.6065 33.1899 73.9965 33.5999C74.3865 33.9999 74.8815 34.1999 75.4815 34.1999Z" fill="black"/>
<path d="M86.2406 27.8099C86.9906 27.8099 87.6706 27.9849 88.2806 28.3349C88.9006 28.6749 89.3856 29.1599 89.7356 29.7899C90.0856 30.4099 90.2606 31.1349 90.2606 31.9649C90.2606 32.7949 90.0856 33.5249 89.7356 34.1549C89.3856 34.7749 88.9006 35.2599 88.2806 35.6099C87.6706 35.9499 86.9906 36.1199 86.2406 36.1199C85.2106 36.1199 84.4006 35.7949 83.8106 35.1449V38.9099H81.4706V27.9299H83.7056V28.8599C84.2856 28.1599 85.1306 27.8099 86.2406 27.8099ZM85.8356 34.1999C86.4356 34.1999 86.9256 33.9999 87.3056 33.5999C87.6956 33.1899 87.8906 32.6449 87.8906 31.9649C87.8906 31.2849 87.6956 30.7449 87.3056 30.3449C86.9256 29.9349 86.4356 29.7299 85.8356 29.7299C85.2356 29.7299 84.7406 29.9349 84.3506 30.3449C83.9706 30.7449 83.7806 31.2849 83.7806 31.9649C83.7806 32.6449 83.9706 33.1899 84.3506 33.5999C84.7406 33.9999 85.2356 34.1999 85.8356 34.1999Z" fill="black"/>
</svg>
